<svg width="14" height="14" viewBox="0 0 14 14" fill="none" xmlns="http://www.w3.org/2000/svg">
<path fill-rule="evenodd" clip-rule="evenodd" d="M11.0813 0.474468L13.4788 2.87199C14.1491 3.51055 14.1765 4.57097 13.5401 5.24327L5.66499 13.1184C5.37977 13.4012 5.00593 13.5773 4.60623 13.6171L0.957442 13.9496H0.878691C0.646111 13.951 0.422565 13.8596 0.257434 13.6959C0.0728398 13.5119 -0.0201832 13.2553 0.00368177 12.9959L0.379936 9.34706C0.419753 8.94736 0.595858 8.57352 0.878691 8.2883L8.75377 0.413217C9.43263 -0.160306 10.4336 -0.133966 11.0813 0.474468ZM8.15877 3.4495L10.5038 5.79452L12.2538 4.08826L9.86504 1.69948L8.15877 3.4495Z" fill="#5357B6"/>
</svg>
